<?xml version="1.0" standalone="no"?>
<!DOCTYPE svg PUBLIC "-//W3C//DTD SVG 20010904//EN"
 "http://www.w3.org/TR/2001/REC-SVG-20010904/DTD/svg10.dtd">
<svg version="1.0" xmlns="http://www.w3.org/2000/svg"
 width="2000.000000pt" height="1194.000000pt" viewBox="0 0 2000.000000 1194.000000"
 preserveAspectRatio="xMidYMid meet">
<metadata>
Created by potrace 1.16, written by Peter Selinger 2001-2019
</metadata>
<g transform="translate(0.000000,1194.000000) scale(0.100000,-0.100000)"
fill="#000000" stroke="none">
<path d="M202 11791 c-10 -6 -12 -472 -12 -2242 -1 -2234 -1 -2234 33 -2243
24 -6 41 -5 61 5 27 14 27 14 26 2157 0 2143 0 2143 25 2167 24 25 24 25 2137
25 1984 0 2114 1 2125 17 20 26 15 68 -11 95 -21 24 -27 25 -73 17 -55 -10
-4220 -7 -4268 4 -17 3 -36 3 -43 -2z"/>
<path d="M15385 11792 c-49 -10 -73 -74 -42 -115 12 -17 134 -18 2118 -17
2106 0 2106 0 2133 -21 26 -21 26 -21 26 -2167 0 -2042 1 -2148 17 -2160 18
-14 90 -9 106 7 8 8 10 4237 1 4315 -3 28 -1 70 4 93 12 52 0 66 -55 63 -140
-6 -4232 -8 -4257 -2 -17 4 -40 6 -51 4z"/>
<path d="M6766 10969 c-10 -6 -26 -19 -35 -28 -9 -9 -33 -30 -54 -47 -20 -17
-45 -51 -56 -75 -10 -24 -28 -52 -40 -62 -19 -15 -21 -27 -20 -108 1 -78 4
-93 21 -108 11 -9 28 -32 37 -52 20 -46 104 -119 136 -119 13 0 36 -11 50 -24
42 -39 73 -41 135 -6 30 16 67 30 82 30 19 0 43 16 82 54 48 46 58 63 70 114
8 33 16 65 20 70 3 5 8 28 11 51 4 33 0 49 -15 71 -11 15 -20 36 -20 45 0 27
-20 56 -74 108 -28 26 -62 59 -76 73 -23 22 -32 24 -130 24 -58 0 -113 -5
-124 -11z m194 -199 c42 -30 70 -81 70 -128 0 -35 -6 -47 -42 -83 -75 -72
-124 -75 -195 -11 -69 64 -70 137 -3 204 34 34 43 38 90 38 36 0 61 -6 80 -20z"/>
<path d="M8204 10149 c-12 -4 -25 -12 -29 -18 -3 -6 -29 -23 -56 -36 -32 -17
-51 -33 -55 -49 -3 -14 -21 -38 -39 -55 -28 -25 -35 -40 -41 -87 -3 -32 -4
-96 0 -143 6 -81 8 -88 41 -120 19 -18 35 -40 35 -47 0 -8 17 -22 38 -30 44
-20 51 -23 87 -49 38 -27 121 -25 161 3 16 11 52 27 80 36 42 14 60 27 100 78
74 92 73 90 71 216 -2 110 -3 114 -29 137 -15 13 -36 38 -46 56 -10 18 -24 36
-32 40 -8 4 -40 21 -70 39 -46 28 -66 33 -125 35 -38 2 -80 -1 -91 -6z m128
-189 c47 -14 100 -85 100 -135 0 -43 -40 -116 -72 -132 -30 -15 -99 -17 -134
-3 -33 12 -86 96 -86 136 0 59 81 142 140 144 8 0 32 -5 52 -10z"/>
<path d="M6565 9839 c-16 -5 -63 -12 -103 -15 -81 -8 -93 -15 -192 -116 -110
-113 -119 -124 -126 -165 -3 -15 -14 -42 -25 -60 -11 -18 -22 -51 -23 -73 -2
-22 -12 -50 -22 -61 -25 -28 -101 -66 -150 -75 -21 -4 -52 -17 -67 -30 -15
-13 -44 -26 -65 -29 -56 -9 -101 -25 -138 -50 -19 -13 -52 -26 -74 -30 -23 -4
-44 -14 -50 -25 -10 -19 -47 -35 -102 -45 -21 -3 -43 -12 -51 -19 -21 -22 -74
-46 -100 -46 -14 0 -30 -7 -38 -16 -19 -23 -61 -43 -118 -55 -27 -6 -60 -19
-72 -30 -20 -17 -43 -25 -121 -43 -16 -4 -28 -11 -28 -16 0 -14 -50 -36 -99
-44 -24 -4 -57 -18 -73 -31 -56 -47 -125 -41 -165 15 -7 10 -33 23 -57 29 -25
6 -49 18 -54 27 -27 49 -244 36 -392 -22 -67 -27 -160 -108 -174 -152 -4 -11
-17 -27 -30 -36 -14 -9 -26 -29 -30 -50 -4 -20 -19 -50 -34 -68 -26 -31 -27
-36 -30 -171 -3 -132 -2 -140 20 -175 13 -21 32 -58 42 -84 10 -27 22 -48 27
-48 16 0 41 -71 35 -96 -3 -12 -17 -35 -30 -51 -13 -15 -29 -53 -35 -83 -6
-30 -20 -64 -31 -75 -10 -11 -23 -47 -29 -80 -6 -32 -22 -75 -36 -95 -14 -20
-29 -60 -35 -90 -6 -30 -21 -70 -34 -90 -13 -19 -29 -61 -36 -92 -6 -31 -21
-69 -33 -85 -12 -15 -27 -54 -34 -87 -7 -32 -24 -76 -38 -97 -14 -21 -25 -47
-25 -57 0 -31 -21 -85 -43 -109 -10 -12 -23 -43 -28 -70 -5 -26 -22 -75 -39
-107 -16 -32 -30 -65 -30 -73 0 -8 -7 -28 -16 -44 -19 -37 -67 -59 -153 -69
-44 -6 -67 -14 -74 -25 -5 -9 -32 -27 -61 -40 -31 -14 -65 -40 -86 -66 -19
-23 -45 -51 -58 -63 -12 -11 -27 -37 -33 -58 -5 -21 -21 -55 -34 -75 -26 -37
-28 -57 -25 -219 1 -56 7 -82 31 -129 16 -32 29 -68 29 -80 0 -12 15 -35 33
-51 17 -17 40 -39 49 -50 42 -48 95 -92 120 -98 14 -3 40 -17 57 -31 24 -21
44 -27 103 -31 85 -5 105 -19 119 -85 6 -24 19 -53 29 -64 22 -24 40 -67 40
-98 0 -12 13 -41 29 -65 16 -23 32 -61 36 -84 4 -22 20 -61 36 -86 15 -24 31
-65 35 -91 4 -25 17 -59 30 -74 13 -15 26 -44 30 -65 3 -20 14 -48 23 -62 29
-41 48 -83 55 -121 3 -19 17 -50 31 -69 13 -18 29 -58 36 -89 6 -31 19 -64 30
-73 18 -18 39 -77 39 -112 0 -10 11 -31 25 -47 13 -17 34 -61 45 -100 25 -83
18 -117 -35 -173 -19 -21 -36 -51 -39 -69 -17 -112 -21 -186 -15 -235 5 -32
11 -79 14 -106 4 -35 15 -59 35 -83 17 -19 30 -38 30 -44 0 -21 133 -149 176
-170 24 -11 44 -24 44 -28 0 -20 56 -28 183 -29 170 -1 220 7 252 42 13 14 31
26 39 26 8 0 29 12 46 27 39 32 80 34 120 5 16 -12 52 -27 79 -33 27 -6 62
-21 78 -35 15 -13 35 -24 43 -24 31 0 88 -21 110 -40 13 -11 35 -23 49 -26 79
-18 104 -27 121 -44 10 -10 43 -23 72 -29 65 -12 108 -27 130 -48 10 -9 41
-20 69 -24 29 -5 68 -19 88 -33 20 -13 62 -29 94 -36 33 -7 68 -21 82 -34 13
-13 49 -28 78 -35 33 -7 63 -21 77 -36 15 -16 34 -25 55 -25 45 0 152 -56 169
-88 8 -15 16 -46 19 -70 2 -23 11 -50 20 -60 8 -9 20 -37 27 -61 11 -42 35
-75 89 -124 14 -12 35 -32 48 -44 30 -28 50 -39 90 -46 18 -4 54 -17 80 -29
42 -19 65 -22 181 -23 118 0 135 2 147 18 7 10 41 27 75 37 38 12 68 28 81 44
11 14 32 31 47 38 15 7 33 27 41 43 8 17 27 44 42 62 18 21 30 49 34 80 16
114 36 154 99 192 19 12 53 24 77 27 24 4 57 17 72 30 15 13 47 29 70 35 23 6
60 22 82 35 22 13 69 30 104 38 34 8 68 22 75 31 6 8 38 23 71 31 33 9 65 24
72 34 14 20 61 38 105 42 16 1 40 13 55 25 14 13 49 30 77 38 27 8 59 23 70
34 24 21 78 41 112 41 12 0 29 7 37 14 8 8 42 24 76 36 34 11 91 36 127 55 36
19 77 35 90 35 35 0 92 -26 112 -50 11 -13 42 -27 87 -37 39 -8 84 -23 100
-33 38 -23 110 -20 163 8 21 11 64 25 96 32 32 6 60 18 63 26 3 8 22 23 42 34
43 22 103 83 125 127 9 18 25 37 35 42 12 7 20 26 24 56 4 25 15 65 26 88 34
75 36 133 8 217 -14 41 -28 90 -32 109 -4 18 -23 50 -41 70 -19 20 -38 47 -41
60 -9 35 15 147 44 209 14 29 32 81 39 114 8 34 23 75 33 92 10 17 24 56 30
86 7 30 22 74 36 97 13 24 29 69 35 100 7 32 22 74 35 93 13 19 26 59 30 88 4
29 18 74 32 100 14 26 32 76 39 111 7 35 23 79 34 99 12 19 25 57 30 84 6 28
16 62 24 76 8 15 23 45 34 67 29 61 42 68 140 70 109 3 139 11 180 47 18 15
40 28 48 28 22 0 124 101 124 122 0 9 13 29 30 44 21 20 33 44 40 84 6 30 18
75 26 100 21 67 24 112 9 145 -8 17 -19 59 -25 95 -13 70 -25 100 -47 114 -8
4 -21 23 -29 42 -8 19 -30 44 -49 56 -19 13 -39 33 -44 45 -6 12 -23 26 -38
29 -15 4 -45 18 -65 31 -21 12 -42 23 -46 23 -21 0 -82 73 -92 110 -5 22 -15
59 -21 83 -6 23 -19 50 -30 59 -10 10 -21 35 -24 55 -8 48 -25 93 -35 93 -10
0 -27 44 -40 105 -6 27 -20 59 -30 70 -24 25 -40 68 -40 104 0 16 -11 40 -24
54 -14 15 -29 49 -36 79 -6 29 -24 72 -39 96 -16 23 -32 62 -36 85 -4 23 -17
58 -30 77 -13 19 -27 49 -30 65 -10 45 -26 85 -35 85 -9 0 -30 56 -49 128 -7
23 -16 42 -20 42 -12 0 -41 74 -41 103 0 12 -9 36 -20 52 -26 40 -26 99 2 142
19 32 21 48 19 160 -2 128 -8 160 -34 182 -9 7 -19 27 -22 44 -4 18 -19 46
-34 62 -15 17 -42 49 -60 73 -18 23 -47 50 -65 58 -17 9 -41 27 -52 41 -19 22
-33 27 -113 34 -50 5 -99 12 -109 17 -19 9 -24 9 -148 -12 -99 -17 -124 -24
-124 -35 0 -12 -48 -31 -79 -31 -15 0 -42 11 -61 25 -18 14 -50 28 -69 31 -20
4 -65 19 -101 34 -36 15 -87 31 -114 35 -32 4 -57 15 -73 32 -18 17 -43 27
-87 34 -34 6 -78 21 -99 35 -21 14 -63 29 -94 34 -30 5 -74 20 -97 33 -22 14
-66 30 -96 36 -30 7 -71 22 -90 35 -19 13 -60 29 -90 35 -30 7 -72 23 -92 36
-23 15 -53 25 -75 25 -44 1 -107 21 -131 43 -9 8 -35 20 -58 26 -22 6 -49 19
-58 30 -20 22 -65 145 -66 178 0 12 -13 37 -30 55 -16 18 -30 37 -30 42 0 15
-109 116 -125 116 -7 0 -22 11 -32 24 -22 27 -38 33 -118 41 -33 4 -76 11 -95
16 -41 11 -55 10 -95 -2z m194 -190 c88 -49 182 -162 201 -243 12 -53 13 -132
0 -174 -14 -51 -79 -142 -116 -164 -19 -11 -34 -23 -34 -27 0 -12 -54 -39 -95
-47 -59 -11 -163 -12 -222 -2 -60 11 -112 48 -169 123 -50 66 -54 82 -54 208
0 113 7 140 44 183 85 100 101 115 133 123 20 6 43 17 52 25 49 44 174 42 260
-5z m465 -499 c31 -10 70 -29 86 -40 16 -12 58 -26 92 -31 35 -6 86 -21 113
-33 28 -13 74 -29 103 -36 29 -7 66 -23 81 -35 15 -13 47 -26 71 -30 54 -8
110 -30 110 -44 0 -12 20 -18 80 -26 62 -8 111 -24 139 -46 13 -11 36 -19 51
-19 15 0 53 -13 86 -29 32 -16 91 -37 129 -46 95 -22 145 -55 145 -97 0 -18
-9 -41 -20 -53 -37 -39 -48 -207 -25 -385 2 -14 3 -30 4 -36 3 -32 215 -241
253 -249 15 -4 38 -15 51 -25 31 -25 56 -29 207 -37 108 -5 131 -3 163 12 20
9 37 21 37 27 0 14 81 48 117 48 36 0 46 -13 58 -75 3 -22 19 -59 35 -83 15
-23 31 -62 34 -86 4 -25 17 -55 31 -70 13 -14 28 -49 35 -81 6 -30 16 -57 21
-61 16 -9 46 -77 52 -118 3 -21 18 -56 33 -77 16 -23 28 -57 31 -86 3 -27 13
-57 23 -68 28 -32 50 -81 50 -113 0 -15 9 -38 21 -50 26 -29 49 -84 49 -119 0
-15 11 -41 25 -56 13 -17 29 -53 36 -85 6 -32 17 -64 24 -72 38 -46 15 -88
-55 -97 -29 -4 -57 -16 -78 -34 -18 -16 -39 -29 -47 -29 -26 0 -185 -171 -185
-198 0 -10 -7 -30 -16 -47 -9 -16 -23 -42 -30 -56 -9 -17 -14 -64 -15 -133 -1
-100 1 -111 30 -171 17 -35 31 -71 31 -80 0 -9 14 -30 30 -47 17 -16 30 -33
30 -37 0 -8 51 -54 129 -117 32 -27 33 -29 27 -83 -3 -33 -20 -85 -40 -126
-19 -38 -37 -91 -41 -117 -3 -26 -14 -57 -24 -70 -21 -27 -41 -82 -41 -113 0
-11 -16 -52 -35 -91 -21 -40 -35 -84 -35 -105 0 -20 -11 -58 -25 -84 -14 -26
-33 -77 -41 -113 -8 -35 -26 -81 -40 -101 -13 -19 -24 -47 -24 -61 0 -41 -18
-94 -45 -130 -15 -21 -25 -47 -25 -69 0 -46 -32 -116 -58 -130 -29 -16 -79
-14 -106 4 -47 31 -249 19 -306 -17 -14 -9 -44 -21 -66 -27 -25 -7 -48 -21
-58 -36 -9 -13 -33 -42 -53 -63 -21 -22 -51 -59 -68 -82 -16 -23 -38 -50 -47
-61 -19 -20 -66 -25 -96 -10 -67 33 -98 42 -187 57 -153 25 -184 31 -270 53
-44 11 -94 21 -112 21 -19 0 -43 10 -59 23 -25 21 -28 31 -32 108 -3 62 -9 89
-22 104 -10 11 -25 36 -33 55 -38 90 -201 213 -297 226 -164 21 -192 17 -259
-31 -19 -14 -44 -25 -55 -25 -12 0 -36 -16 -55 -35 -18 -19 -39 -35 -47 -35
-21 0 -74 29 -74 40 0 5 -14 17 -31 26 -34 17 -117 82 -189 148 -25 22 -58 49
-73 59 -26 17 -59 42 -282 220 -171 137 -183 159 -125 232 43 55 53 103 47
235 -2 63 0 127 5 142 10 28 52 58 82 58 8 0 50 15 93 33 43 19 95 37 116 40
22 3 70 22 107 42 38 19 81 35 96 35 29 0 64 -25 64 -45 0 -17 150 -165 166
-165 8 0 28 -13 46 -29 39 -33 102 -43 273 -42 108 1 112 2 195 43 61 29 99
56 135 94 58 62 89 69 139 31 17 -13 43 -27 58 -31 16 -3 49 -20 75 -36 26
-17 52 -30 58 -30 6 0 27 -12 46 -26 19 -14 49 -32 68 -40 55 -23 131 -84 137
-111 5 -17 0 -34 -15 -53 -18 -25 -21 -43 -21 -128 0 -88 3 -102 24 -130 13
-18 26 -50 30 -72 7 -47 44 -90 183 -220 29 -27 93 -50 178 -64 11 -2 34 -9
50 -16 17 -7 63 -14 103 -17 66 -5 75 -3 105 20 19 14 52 30 74 36 22 6 53 23
69 38 16 16 42 37 57 48 16 11 43 43 61 70 19 28 43 59 55 69 12 11 21 31 21
47 0 15 9 55 19 89 11 34 17 68 14 76 -3 8 0 21 6 28 9 10 9 16 1 21 -6 4 -9
19 -5 34 3 15 -1 40 -10 57 -8 17 -18 53 -21 80 -7 53 -30 86 -120 177 -102
103 -112 110 -193 128 -106 23 -105 23 -112 32 -9 12 -107 18 -114 7 -7 -12
-93 -36 -157 -45 -48 -6 -73 -24 -167 -117 -35 -36 -55 -48 -77 -48 -34 0
-100 29 -129 57 -11 10 -36 25 -55 33 -19 7 -48 24 -65 36 -16 12 -55 32 -87
44 -31 11 -62 27 -68 35 -7 8 -19 15 -28 15 -9 0 -26 10 -39 22 -28 26 -29 65
-8 187 11 63 12 87 4 98 -7 7 -12 38 -13 68 0 65 16 87 83 111 25 10 57 25 71
34 14 9 47 24 73 33 26 9 62 28 78 42 17 14 36 25 42 25 7 0 29 11 50 26 21
14 55 31 77 39 22 8 68 28 102 44 35 17 70 31 80 31 10 0 32 13 50 29 18 15
43 31 55 35 27 9 60 -7 68 -34 4 -12 21 -23 44 -30 20 -5 47 -20 60 -34 28
-30 87 -38 205 -30 76 6 93 11 120 33 17 15 43 32 59 39 15 6 32 23 37 36 5
13 22 37 38 52 24 24 32 45 47 121 9 51 14 97 10 103 -4 7 -11 40 -15 75 -7
60 -12 69 -70 133 -45 51 -73 73 -103 82 -23 8 -53 24 -68 37 -22 20 -35 23
-105 23 -64 0 -84 -4 -100 -19 -28 -25 -59 -41 -82 -41 -10 0 -48 -28 -83 -62
-57 -56 -65 -69 -82 -133 -19 -70 -28 -165 -16 -165 11 0 17 -53 9 -75 -13
-33 -121 -98 -183 -109 -21 -4 -41 -14 -44 -21 -3 -8 -30 -22 -61 -32 -32 -9
-66 -25 -77 -34 -11 -10 -38 -25 -60 -34 -21 -9 -53 -27 -69 -40 -17 -13 -56
-31 -88 -40 -31 -9 -61 -22 -67 -29 -6 -7 -33 -23 -60 -35 -66 -32 -89 -24
-175 57 -39 37 -92 77 -117 90 -44 22 -69 54 -69 89 0 9 13 57 29 107 16 50
37 127 46 171 10 44 21 85 26 91 4 5 15 46 22 90 15 85 30 123 50 125 7 1 49
3 95 4 65 2 88 7 105 22 27 24 71 43 98 43 12 0 33 14 47 30 15 17 31 30 37
30 17 0 115 111 115 131 0 10 15 35 33 55 32 37 32 37 35 197 4 189 0 217 -38
259 -17 18 -30 40 -30 48 0 18 -76 97 -152 159 -36 30 -58 40 -102 45 -31 4
-58 12 -61 17 -4 5 -17 9 -31 9 -14 0 -33 4 -43 9 -27 15 -74 19 -94 9 -10 -5
-30 -12 -44 -14 -15 -3 -37 -14 -51 -24 -14 -11 -40 -20 -60 -20 -28 0 -42 8
-69 38 -51 57 -222 269 -277 342 -56 75 -164 212 -218 277 -21 25 -38 55 -38
69 0 27 59 97 98 117 14 6 34 28 45 47 10 19 27 42 37 50 10 8 23 32 30 53 14
44 34 67 59 67 10 0 43 -9 75 -20z m-1100 -15 c15 -15 19 -25 30 -77 3 -15 15
-29 26 -33 10 -3 22 -14 25 -25 3 -10 36 -43 73 -74 37 -30 75 -62 85 -71 21
-18 22 -66 3 -103 -8 -15 -17 -50 -21 -77 -4 -28 -20 -81 -35 -120 -15 -38
-30 -93 -34 -121 -3 -28 -20 -89 -36 -135 -16 -46 -30 -91 -30 -100 0 -8 -11
-26 -24 -38 -20 -19 -32 -22 -72 -18 -29 3 -59 -1 -74 -8 -14 -7 -43 -16 -63
-20 -21 -4 -43 -15 -50 -25 -6 -9 -31 -30 -55 -45 -28 -18 -51 -45 -64 -72
-14 -29 -29 -45 -45 -49 -33 -9 -150 11 -213 36 -50 20 -114 37 -175 47 -16 3
-55 13 -86 23 -31 11 -96 28 -145 39 -49 11 -130 33 -180 50 -51 17 -101 31
-113 31 -37 0 -61 35 -61 88 0 26 4 53 8 59 7 11 -6 100 -35 246 -4 21 1 35
18 53 12 13 27 24 33 24 6 0 27 8 46 19 19 10 58 23 87 29 30 7 62 22 76 36
14 14 42 28 63 32 22 3 58 19 82 35 24 15 65 32 92 38 26 6 65 22 85 36 21 13
59 28 86 31 27 4 49 10 49 15 0 14 71 46 120 54 25 4 57 18 72 31 29 23 33 25
106 44 23 6 42 15 42 20 0 15 62 43 95 42 20 -1 40 8 60 27 17 16 37 31 45 34
31 11 89 7 104 -8z m656 -363 c16 -15 40 -41 52 -59 13 -18 59 -76 103 -130
44 -54 87 -108 95 -120 8 -12 70 -88 137 -170 145 -178 163 -207 163 -255 0
-31 -6 -42 -44 -73 -24 -20 -47 -47 -50 -61 -4 -14 -20 -44 -37 -67 -30 -42
-30 -42 -27 -213 3 -168 3 -171 31 -210 15 -22 27 -47 27 -56 0 -27 173 -188
202 -188 9 0 27 -9 42 -21 32 -25 34 -62 5 -139 -11 -30 -29 -98 -39 -151 -10
-53 -28 -119 -40 -145 -12 -27 -24 -74 -27 -104 -11 -111 -33 -125 -201 -133
-84 -4 -95 -7 -117 -31 -13 -14 -32 -26 -41 -26 -28 0 -184 -166 -191 -203 -3
-18 -17 -50 -32 -71 -24 -37 -26 -47 -26 -157 0 -110 -2 -119 -24 -143 -13
-14 -47 -33 -75 -42 -28 -8 -74 -26 -102 -39 -29 -13 -69 -27 -90 -30 -22 -4
-71 -22 -109 -40 -118 -56 -118 -56 -180 10 -30 31 -55 61 -55 65 0 4 -13 13
-29 20 -16 6 -41 25 -55 40 -15 18 -40 32 -63 36 -84 14 -156 33 -166 43 -16
16 -83 13 -116 -3 -15 -8 -64 -22 -110 -30 -64 -12 -91 -23 -123 -48 -64 -52
-126 -120 -139 -153 -7 -16 -23 -42 -36 -56 -26 -28 -42 -110 -43 -216 0 -44
-4 -55 -26 -72 -15 -12 -31 -21 -36 -21 -6 0 -21 -9 -35 -20 -14 -11 -62 -31
-107 -45 -44 -14 -99 -34 -121 -45 -89 -42 -132 -39 -157 14 -12 24 -26 36
-48 41 -17 4 -41 17 -53 29 -22 23 -172 74 -183 63 -3 -3 -17 -2 -30 3 -18 7
-38 4 -75 -10 -27 -11 -60 -20 -73 -20 -13 0 -44 -16 -68 -36 -96 -79 -131
-126 -152 -207 -10 -37 -22 -70 -28 -73 -11 -7 -8 -104 4 -104 4 0 7 -3 6 -7
-1 -5 4 -20 10 -34 5 -14 14 -47 17 -74 6 -38 13 -51 36 -64 16 -9 34 -26 40
-38 7 -12 28 -30 48 -39 20 -9 46 -26 59 -38 19 -17 44 -23 127 -31 130 -12
172 -5 243 41 78 50 110 82 134 129 11 22 29 47 40 56 17 13 19 28 20 115 0
107 11 137 50 150 13 3 34 14 48 24 14 9 57 27 95 39 39 12 94 34 123 47 38
18 62 23 82 19 32 -7 80 -57 80 -83 0 -9 14 -29 31 -43 41 -33 42 -72 3 -109
-16 -15 -45 -46 -64 -70 -19 -23 -47 -55 -61 -70 -14 -15 -28 -34 -31 -41 -3
-8 -59 -77 -124 -154 -66 -77 -137 -163 -159 -190 -21 -28 -69 -84 -105 -125
-36 -41 -83 -97 -104 -125 -22 -27 -48 -58 -59 -67 -29 -27 -74 -23 -103 10
-23 24 -35 28 -102 32 -100 7 -283 -5 -312 -20 -12 -6 -33 -9 -46 -6 -29 8
-64 60 -64 95 0 13 -13 45 -30 71 -16 26 -34 67 -38 91 -5 24 -20 61 -35 82
-14 20 -28 56 -32 79 -4 24 -18 56 -30 73 -13 16 -30 55 -38 85 -8 30 -25 72
-39 92 -14 21 -29 59 -33 85 -4 26 -17 60 -30 75 -13 15 -29 53 -35 83 -6 30
-18 62 -26 70 -20 19 -44 79 -44 108 0 13 -11 38 -25 57 -14 19 -35 65 -47
102 -26 81 -19 115 30 139 38 19 158 129 212 195 27 33 39 58 43 92 3 26 13
62 22 79 18 37 28 140 14 148 -5 4 -9 21 -9 40 0 27 8 40 42 69 23 20 63 46
88 59 26 13 62 35 82 50 19 15 39 27 45 27 6 0 30 16 54 35 24 19 49 35 56 35
6 0 29 15 52 33 131 105 145 108 202 45 21 -24 46 -50 54 -58 9 -8 31 -30 49
-48 18 -18 51 -38 72 -43 21 -6 47 -18 57 -27 9 -8 17 -12 17 -8 0 4 10 1 22
-5 53 -28 235 -30 276 -2 39 26 81 43 107 43 12 0 39 16 61 36 104 97 134 127
134 134 0 4 15 26 33 48 30 36 34 49 46 150 15 127 3 252 -31 309 -30 50 -17
83 55 146 34 29 76 62 92 73 17 10 36 24 43 31 8 7 23 18 35 25 29 15 87 60
175 135 40 35 83 63 95 63 11 0 39 -12 61 -27 33 -24 53 -29 130 -34 142 -9
217 2 263 40 21 17 44 31 51 31 18 0 112 98 112 117 0 8 13 45 29 82 24 57 28
79 25 130 -2 40 -10 72 -23 89 -10 15 -23 44 -29 64 -8 31 -42 76 -93 123 -82
76 -89 85 -89 109 0 15 9 44 19 64 11 21 24 65 30 98 6 32 25 99 41 147 17 49
30 96 30 104 0 33 54 193 71 212 16 17 33 19 139 20 117 0 121 0 150 -27z
m2349 -86 c35 -22 71 -52 80 -69 9 -16 28 -44 43 -61 27 -33 58 -130 58 -185
0 -32 -16 -106 -32 -152 -12 -33 -118 -143 -161 -166 -25 -14 -56 -18 -152
-18 -69 1 -135 6 -156 13 -38 13 -130 109 -148 153 -5 13 -19 47 -30 76 -28
68 -26 118 4 200 42 111 125 203 183 203 11 0 26 7 33 16 22 27 51 34 134 31
73 -2 85 -5 144 -41z m-4704 -20 c32 -14 145 -123 145 -141 0 -5 14 -37 32
-70 26 -50 31 -71 31 -125 -1 -120 -87 -260 -200 -327 -40 -23 -51 -25 -141
-21 -79 3 -108 9 -157 31 -63 29 -115 72 -115 93 0 7 -12 26 -26 41 -34 37
-40 54 -49 140 -9 94 1 165 30 205 13 18 32 48 41 66 10 20 42 50 77 73 57 36
73 42 152 53 46 6 145 -4 180 -18z m419 -612 c33 -8 80 -26 103 -40 28 -16 64
-26 115 -30 46 -4 97 -17 138 -34 40 -18 94 -31 140 -36 51 -4 93 -16 130 -34
37 -19 84 -31 140 -38 115 -14 130 -31 130 -144 0 -74 2 -82 25 -100 50 -39
31 -86 -72 -169 -68 -56 -73 -59 -165 -120 -31 -21 -92 -69 -138 -108 -47 -41
-91 -71 -103 -71 -28 0 -83 33 -118 71 -15 16 -36 29 -47 29 -33 0 -177 37
-199 51 -18 10 -28 10 -61 0 -28 -10 -45 -10 -59 -3 -22 12 -77 119 -87 172
-4 19 -22 67 -41 105 -18 39 -35 87 -38 108 -3 20 -14 50 -25 65 -19 27 -52
115 -52 138 0 14 169 188 191 197 22 9 27 8 93 -9z m2977 -89 c19 -13 44 -29
56 -34 11 -5 34 -27 50 -48 15 -21 34 -45 42 -55 26 -31 61 -140 61 -190 0
-53 -30 -154 -61 -204 -10 -17 -42 -53 -72 -81 -82 -78 -159 -88 -346 -47 -93
20 -199 169 -217 305 -8 58 25 172 64 223 15 19 35 47 45 61 10 13 30 28 45
31 15 4 36 15 47 25 33 30 66 38 161 38 82 1 95 -2 125 -24z m-1596 -21 c26
-15 64 -49 86 -76 37 -47 39 -54 39 -118 0 -63 -14 -120 -29 -120 -4 0 -14
-13 -23 -28 -20 -34 -124 -92 -164 -92 -41 0 -113 38 -160 86 -53 52 -71 121
-54 202 13 61 35 91 97 133 82 57 129 59 208 13z m-2068 -120 c80 -38 142 -44
175 -16 9 8 37 17 62 19 38 5 48 2 69 -20 14 -13 31 -44 37 -68 6 -24 25 -72
41 -107 16 -34 29 -70 29 -78 0 -9 16 -51 35 -94 19 -43 35 -86 35 -96 0 -11
9 -32 20 -49 11 -16 20 -38 20 -48 0 -30 -36 -73 -89 -105 -26 -17 -59 -45
-71 -64 -13 -18 -36 -46 -52 -61 -15 -16 -32 -45 -37 -64 -6 -20 -20 -47 -33
-60 -22 -24 -23 -32 -23 -178 0 -168 1 -165 -62 -202 -36 -21 -196 -127 -233
-155 -14 -10 -36 -23 -49 -28 -13 -6 -56 -33 -95 -60 -87 -60 -132 -66 -165
-24 -12 15 -21 33 -21 40 0 7 -12 21 -27 31 -16 9 -40 29 -55 45 -15 15 -35
28 -46 28 -11 0 -40 18 -66 41 -50 44 -57 70 -32 117 8 15 19 46 25 70 7 23
23 59 36 79 14 20 25 47 25 60 0 29 25 91 47 115 9 10 20 41 24 69 5 29 19 69
33 89 13 20 27 58 31 84 4 25 20 65 36 89 16 23 31 58 35 77 10 57 14 69 38
98 13 16 26 48 30 76 3 28 19 70 35 95 16 25 32 66 36 91 8 54 24 100 36 100
5 0 9 9 9 21 0 22 51 79 71 79 6 0 45 -16 86 -36z m866 -735 c64 -35 141 -119
183 -199 34 -66 38 -83 38 -146 0 -53 -5 -79 -20 -105 -12 -19 -24 -47 -28
-63 -9 -38 -120 -153 -160 -165 -82 -26 -148 -24 -277 10 -39 10 -114 76 -161
143 -63 88 -58 309 8 375 8 9 24 31 35 49 12 21 36 40 64 52 25 11 45 24 45
29 0 18 56 29 153 30 56 1 107 -4 120 -10z m3938 -135 c15 -7 44 -37 65 -66
54 -76 58 -134 14 -212 -37 -65 -55 -80 -121 -97 -39 -10 -50 -10 -79 4 -18
10 -39 17 -45 17 -21 0 -67 42 -96 89 -30 47 -36 91 -19 136 13 33 76 117 98
129 48 27 131 27 183 0z m1123 -590 c80 -32 126 -72 171 -148 44 -74 59 -132
52 -198 -8 -65 -64 -181 -114 -235 -71 -79 -208 -117 -281 -79 -17 9 -44 16
-61 16 -46 0 -77 16 -123 63 -89 92 -106 121 -113 200 -9 95 7 183 40 217 14
14 25 31 25 38 0 15 57 80 84 94 113 61 221 72 320 32z m-6693 -38 c165 -53
193 -75 251 -193 38 -80 40 -86 36 -165 -4 -107 -31 -163 -114 -245 -49 -48
-71 -62 -101 -66 -233 -31 -312 -3 -430 152 -30 40 -35 56 -47 163 -5 45 11
133 30 171 23 44 117 133 149 141 16 4 42 18 58 32 34 28 98 32 168 10z m3948
-21 c25 -8 63 -17 83 -20 93 -14 207 -170 216 -297 4 -47 0 -68 -20 -110 -14
-29 -30 -67 -37 -83 -6 -17 -33 -53 -60 -81 -78 -81 -210 -118 -285 -79 -15 8
-40 15 -55 15 -43 1 -106 35 -137 75 -16 21 -41 51 -56 68 -34 38 -43 77 -41
187 1 94 10 126 51 177 76 95 106 123 141 133 20 5 43 14 51 20 22 14 96 12
149 -5z m-1432 -593 c15 -12 38 -26 49 -31 12 -5 43 -38 70 -73 72 -94 101
-218 73 -307 -26 -80 -34 -94 -89 -149 -70 -71 -81 -79 -127 -98 -52 -22 -224
-16 -276 10 -108 53 -206 226 -194 341 7 60 46 152 90 208 41 54 57 66 83 67
12 0 28 7 35 17 28 32 71 43 166 41 78 -3 96 -6 120 -26z m2969 -208 c59 -40
113 -95 136 -139 11 -22 30 -52 42 -68 18 -24 21 -43 21 -117 0 -73 -3 -93
-21 -117 -11 -15 -26 -43 -33 -61 -16 -38 -98 -115 -153 -143 -30 -15 -58 -19
-147 -19 -60 0 -122 5 -136 10 -43 16 -117 82 -132 117 -7 18 -17 33 -22 33
-5 0 -17 17 -27 38 -13 28 -18 62 -18 137 -1 107 12 158 45 176 11 5 19 18 19
29 0 28 46 77 85 90 19 6 35 15 35 20 0 4 15 15 33 24 23 11 61 16 133 16 93
0 105 -2 140 -26z m-4356 -339 c14 -8 44 -24 67 -35 42 -22 58 -46 82 -122 16
-48 -7 -137 -47 -187 -35 -44 -110 -82 -160 -83 -84 -1 -191 74 -222 157 -25
67 -2 162 52 212 34 32 128 73 168 73 19 0 46 -7 60 -15z m1637 -218 c37 -32
95 -77 139 -107 79 -54 153 -114 259 -210 17 -14 44 -35 60 -45 50 -31 188
-141 219 -174 17 -17 34 -31 40 -31 5 0 20 -10 33 -22 27 -25 31 -82 8 -112
-9 -12 -15 -42 -15 -77 0 -81 -12 -91 -150 -123 -63 -15 -152 -36 -196 -46
-45 -11 -121 -24 -170 -30 -49 -5 -103 -14 -121 -19 -17 -5 -33 -7 -36 -5 -2
3 -28 -4 -56 -16 -64 -25 -92 -19 -128 27 -68 86 -120 133 -147 133 -17 0 -39
11 -58 31 -31 30 -31 30 -24 367 6 336 6 336 33 364 27 28 99 58 139 58 13 0
39 15 58 35 44 43 66 44 113 2z m-585 -43 c17 -9 52 -22 78 -30 26 -8 53 -21
61 -30 10 -12 12 -70 10 -257 -4 -355 -7 -421 -20 -445 -13 -24 -60 -52 -89
-52 -10 0 -26 -8 -35 -17 -9 -10 -28 -30 -41 -45 -14 -14 -34 -32 -44 -40 -11
-7 -27 -38 -35 -69 -9 -31 -24 -62 -32 -69 -19 -16 -20 -81 -1 -123 7 -18 21
-52 30 -77 24 -64 115 -160 158 -166 97 -12 113 -16 126 -27 23 -19 45 -18 87
3 22 11 58 24 80 30 52 14 165 141 165 186 0 45 18 99 39 118 10 9 47 21 82
27 35 5 84 16 109 25 38 12 97 22 295 48 11 2 67 17 124 35 107 32 178 39 211
21 11 -6 24 -28 31 -49 10 -34 39 -68 122 -145 35 -33 34 -63 -4 -116 -17 -23
-37 -60 -45 -83 -8 -22 -28 -62 -44 -89 -17 -26 -30 -52 -30 -56 0 -5 -11 -23
-25 -42 -13 -18 -30 -49 -36 -69 -6 -20 -21 -47 -33 -59 -19 -22 -26 -23 -86
-18 -130 13 -175 12 -199 -2 -13 -8 -50 -17 -83 -19 -43 -4 -61 -11 -69 -24
-5 -10 -24 -26 -42 -35 -48 -24 -165 -153 -177 -195 -20 -71 -66 -85 -152 -45
-18 8 -54 20 -79 26 -25 7 -59 23 -74 36 -28 24 -36 27 -105 39 -19 3 -57 16
-85 30 -27 13 -69 29 -92 35 -23 6 -55 22 -71 35 -17 14 -43 25 -58 25 -32 0
-108 32 -118 49 -4 5 -34 15 -67 22 -37 7 -73 22 -91 37 -16 14 -50 29 -76 34
-25 4 -67 19 -92 32 -25 13 -61 27 -80 31 -73 16 -170 81 -170 115 0 9 9 29
20 43 17 22 20 40 20 144 0 128 -9 178 -40 213 -11 13 -20 32 -20 42 0 11 -14
32 -32 48 -49 45 -45 84 18 155 27 32 63 76 80 99 17 22 51 62 75 87 24 25 78
88 119 139 41 51 124 149 183 219 59 69 122 144 140 166 74 92 103 115 141
115 20 0 51 -7 68 -16z m1831 -516 c58 -19 82 -33 123 -74 44 -43 54 -59 64
-108 22 -109 -4 -195 -81 -267 -60 -56 -119 -75 -201 -64 -84 10 -112 23 -155
68 -48 51 -56 66 -73 139 -21 92 -2 157 67 229 36 38 71 63 106 77 66 26 65
26 150 0z m1738 -358 c42 -12 123 -91 157 -154 15 -27 34 -60 42 -75 24 -42
19 -190 -8 -233 -12 -18 -30 -52 -41 -74 -24 -53 -128 -141 -176 -150 -72 -13
-187 0 -250 29 -57 27 -125 81 -125 100 0 5 -17 34 -37 64 -32 49 -37 64 -41
132 -4 81 9 150 34 175 8 9 21 31 29 49 14 33 59 80 110 113 61 40 210 51 306
24z m-4704 -46 c74 -32 88 -43 131 -95 65 -82 82 -111 82 -144 0 -17 5 -36 11
-42 10 -10 9 -62 -4 -143 -2 -14 -5 -33 -5 -42 -1 -10 -33 -53 -72 -96 -57
-65 -79 -83 -125 -100 -71 -28 -139 -28 -188 -2 -20 11 -56 20 -78 20 -38 0
-47 6 -104 64 -34 34 -67 78 -74 97 -7 19 -17 43 -23 53 -21 39 -22 129 -1
176 11 25 27 63 37 85 22 53 116 145 148 145 13 0 39 9 58 19 45 25 154 28
207 5z m3518 -64 c52 -18 105 -30 137 -30 46 0 172 -27 273 -58 17 -5 40 -7
53 -6 15 3 32 -5 48 -22 22 -21 25 -31 19 -57 -15 -66 -7 -142 20 -192 14 -26
25 -58 25 -71 0 -39 -40 -75 -90 -81 -28 -4 -53 -15 -66 -28 -11 -12 -44 -28
-73 -35 -29 -7 -63 -23 -76 -36 -12 -12 -40 -26 -61 -29 -22 -4 -55 -18 -74
-31 -39 -26 -78 -41 -129 -48 -18 -2 -43 -14 -56 -26 -24 -22 -75 -40 -115
-40 -14 0 -31 -9 -37 -20 -7 -10 -32 -24 -55 -31 -72 -19 -128 -40 -128 -49 0
-10 -45 -27 -93 -36 -21 -4 -41 -13 -44 -21 -8 -22 -60 -44 -109 -47 -33 -2
-49 -8 -60 -24 -26 -38 -114 -20 -114 23 0 7 -7 19 -16 26 -9 8 -24 32 -34 54
-15 36 -34 55 -117 122 -38 31 -38 63 0 119 18 27 38 63 44 79 6 17 22 47 36
69 15 21 31 53 36 72 5 18 18 46 29 62 11 15 32 53 45 84 14 31 33 61 44 66
10 5 69 12 132 15 99 6 117 10 145 30 17 13 42 28 56 32 35 11 148 115 155
142 3 13 15 33 26 44 19 19 29 20 80 15 32 -4 97 -20 144 -36z m-2139 14 c40
-19 90 -75 99 -111 16 -66 -55 -171 -131 -192 -46 -13 -82 1 -143 56 -40 36
-44 44 -48 93 -5 71 9 97 77 138 60 36 96 40 146 16z m959 -905 c33 -11 68
-25 79 -31 34 -18 102 -91 137 -148 33 -52 34 -59 34 -150 0 -88 -2 -98 -30
-143 -42 -67 -75 -107 -88 -107 -7 0 -24 -13 -40 -29 -25 -27 -76 -48 -103
-43 -6 1 -24 -5 -40 -13 -33 -17 -87 -20 -114 -5 -10 5 -34 12 -54 14 -53 7
-87 29 -148 95 -64 70 -74 100 -77 224 -3 125 9 159 85 238 53 54 78 71 132
92 83 32 150 33 227 6z"/>
<path d="M2885 9782 c-27 -2 -54 -7 -60 -12 -6 -5 -31 -12 -55 -16 -28 -5 -53
-17 -70 -34 -14 -14 -38 -32 -54 -40 -17 -9 -36 -31 -47 -57 -9 -22 -24 -45
-32 -50 -26 -15 -35 -47 -42 -148 -10 -143 4 -218 50 -262 19 -19 35 -40 35
-48 0 -8 19 -23 43 -34 23 -11 47 -28 54 -39 6 -11 28 -23 49 -27 21 -4 51
-13 67 -21 36 -19 137 -27 154 -12 7 6 13 8 13 4 0 -3 17 0 38 8 20 8 50 17
65 21 16 3 39 16 51 28 13 12 43 36 68 53 34 24 50 44 63 80 10 27 25 56 34
64 9 9 18 22 20 30 20 70 8 222 -18 248 -10 9 -27 37 -39 62 -12 25 -40 61
-62 80 -23 19 -53 46 -67 59 -14 13 -58 32 -97 43 -81 23 -93 24 -161 20z
m129 -174 c33 -18 106 -80 117 -99 17 -33 30 -123 23 -167 -9 -59 -39 -100
-114 -151 -54 -37 -75 -45 -121 -49 -38 -3 -65 1 -85 11 -38 19 -114 93 -114
109 0 7 -7 27 -16 43 -19 34 -23 117 -7 137 6 7 16 29 22 49 14 43 97 118 145
130 37 9 121 2 150 -13z"/>
<path d="M13398 7301 c-47 -16 -142 -78 -184 -123 -23 -24 -59 -75 -79 -115
-37 -71 -38 -75 -39 -185 -1 -127 4 -142 73 -219 49 -56 122 -90 209 -97 186
-15 398 181 418 385 14 157 -20 241 -129 317 -53 37 -59 39 -149 42 -51 2
-105 0 -120 -5z"/>
<path d="M11075 6000 c-232 -63 -451 -240 -664 -537 -81 -113 -78 -205 8 -226
37 -9 61 6 156 100 50 49 115 107 146 130 53 39 186 103 214 103 51 0 60 -101
19 -204 -14 -36 -34 -95 -44 -133 -23 -83 -63 -207 -95 -289 -13 -34 -31 -90
-40 -125 -9 -34 -25 -79 -34 -98 -10 -20 -24 -61 -31 -91 -7 -30 -21 -71 -30
-90 -10 -19 -27 -70 -39 -113 -12 -44 -29 -93 -38 -110 -9 -18 -24 -61 -33
-97 -10 -36 -27 -87 -38 -115 -11 -27 -30 -78 -41 -112 -12 -35 -30 -91 -42
-125 -11 -35 -30 -85 -41 -113 -11 -27 -32 -94 -47 -147 -24 -92 -25 -100 -11
-140 22 -64 107 -118 201 -128 181 -20 264 13 327 130 19 36 43 88 52 117 10
28 25 62 34 75 9 13 24 49 34 79 11 29 29 72 41 94 11 22 21 44 21 50 0 5 15
42 34 80 58 118 106 223 106 231 0 8 13 35 142 304 76 160 75 156 160 320 33
63 66 122 73 130 7 8 20 31 30 50 16 33 49 86 118 190 127 190 247 310 311
310 55 0 91 -53 112 -164 17 -85 66 -166 114 -186 28 -12 39 -11 89 6 64 22
107 61 194 176 32 43 68 85 80 93 82 58 147 95 165 95 11 0 28 -7 37 -17 22
-21 15 -57 -29 -148 -19 -38 -39 -88 -46 -110 -7 -22 -19 -50 -26 -62 -8 -13
-25 -51 -38 -85 -42 -111 -76 -191 -107 -252 -16 -32 -29 -65 -29 -72 0 -7
-16 -45 -35 -85 -19 -41 -35 -80 -35 -88 0 -8 -11 -33 -24 -55 -13 -23 -31
-66 -41 -96 -10 -30 -24 -64 -31 -76 -8 -11 -22 -45 -33 -75 -10 -30 -30 -78
-45 -106 -14 -29 -26 -58 -26 -65 0 -7 -16 -44 -35 -82 -19 -39 -35 -76 -35
-83 0 -8 -12 -37 -27 -66 -14 -29 -34 -77 -44 -107 -10 -30 -27 -80 -38 -110
-30 -82 -28 -156 7 -211 35 -55 103 -116 137 -125 15 -4 74 -4 133 -2 80 3
119 10 154 26 26 11 75 28 109 36 34 9 73 24 88 35 14 10 42 23 62 30 20 6 57
25 83 41 26 17 49 30 52 30 14 0 239 158 307 215 94 79 114 81 138 15 25 -67
91 -162 162 -230 59 -58 180 -140 205 -140 7 0 40 -12 75 -26 122 -51 447 -51
592 -1 39 13 88 27 109 31 75 14 273 119 396 210 146 107 352 335 477 526 50
76 179 337 188 380 4 19 16 52 27 74 11 21 26 68 34 105 7 36 25 111 39 165
20 79 26 134 31 260 6 185 2 178 124 263 169 119 292 173 346 153 51 -20 46
-75 -23 -255 -9 -22 -31 -83 -50 -135 -19 -52 -50 -135 -68 -185 -79 -213
-108 -294 -127 -350 -11 -33 -33 -89 -48 -125 -16 -36 -31 -81 -35 -100 -4
-19 -18 -55 -30 -80 -12 -25 -26 -61 -30 -80 -4 -19 -19 -64 -35 -100 -15 -36
-37 -92 -48 -125 -22 -64 -79 -224 -105 -290 -33 -85 -57 -173 -57 -206 0
-111 148 -188 329 -172 130 12 152 36 296 331 64 130 121 246 127 257 6 11 28
52 48 90 156 298 176 333 245 445 12 19 41 69 65 110 68 119 123 203 266 410
239 344 604 680 739 680 34 0 85 -50 85 -83 0 -44 -59 -272 -90 -350 -16 -41
-30 -80 -30 -85 0 -6 -16 -43 -35 -83 -19 -41 -35 -79 -35 -86 0 -7 -13 -41
-29 -75 -28 -61 -40 -91 -101 -243 -65 -163 -82 -203 -104 -250 -13 -27 -27
-61 -31 -75 -4 -14 -17 -47 -30 -75 -13 -27 -35 -77 -48 -110 -14 -33 -35 -85
-47 -115 -12 -30 -35 -82 -51 -115 -15 -33 -32 -76 -38 -95 -5 -19 -21 -63
-36 -98 -33 -78 -39 -207 -12 -258 26 -49 108 -113 159 -122 122 -23 340 21
514 104 39 19 74 34 78 34 16 0 222 138 306 206 180 144 373 386 353 443 -7
20 -53 83 -67 93 -22 15 -36 5 -157 -108 -67 -64 -159 -143 -203 -175 -45 -32
-93 -67 -107 -79 -38 -28 -119 -61 -143 -58 -37 5 -42 48 -14 109 14 30 33 78
42 106 10 29 21 55 26 58 5 3 16 29 26 58 9 28 30 78 45 109 16 32 29 64 29
71 0 8 13 41 29 73 29 56 48 101 111 259 53 132 72 180 101 245 15 36 33 83
40 105 6 22 20 54 29 70 10 17 26 59 35 95 9 36 23 81 32 100 16 39 69 268 79
340 12 89 -31 228 -89 288 -49 51 -132 101 -190 114 -29 6 -95 8 -152 5 -83
-4 -116 -11 -195 -41 -52 -20 -102 -40 -110 -45 -151 -82 -233 -141 -377 -267
-186 -164 -456 -474 -610 -699 -45 -65 -129 -152 -139 -143 -3 3 1 19 9 35 8
15 20 51 27 78 8 28 29 81 47 120 18 38 33 76 33 85 0 8 14 42 30 75 16 33 30
66 30 74 0 7 16 48 35 91 19 43 35 84 35 91 0 8 13 42 29 76 16 34 42 104 57
157 26 89 27 99 15 152 -10 42 -23 68 -52 99 -57 62 -79 68 -221 63 -108 -4
-136 -9 -229 -41 -111 -38 -236 -95 -304 -140 -87 -57 -237 -176 -301 -238
-31 -31 -56 -47 -65 -44 -8 3 -32 43 -54 88 -47 95 -138 199 -230 259 -32 22
-105 56 -160 76 -100 37 -100 37 -305 37 -196 -1 -208 -2 -270 -27 -36 -14
-85 -29 -108 -33 -65 -11 -239 -103 -379 -200 -190 -132 -419 -385 -519 -574
-13 -25 -40 -73 -59 -106 -100 -172 -157 -305 -200 -465 -12 -47 -32 -119 -43
-161 -12 -43 -23 -129 -27 -195 -3 -66 -11 -129 -18 -142 -12 -25 -209 -178
-267 -207 -19 -10 -48 -28 -65 -41 -42 -31 -120 -51 -140 -34 -21 17 -19 64 5
110 11 22 20 45 20 52 0 7 12 35 26 62 14 27 34 73 45 103 10 29 25 66 33 81
8 15 27 55 41 90 58 143 77 189 96 227 10 22 30 68 44 103 59 146 77 189 94
222 10 19 24 53 31 75 7 22 21 54 30 70 10 17 30 59 43 95 43 112 77 193 108
254 16 32 29 66 29 75 0 9 10 32 22 51 11 19 31 67 44 105 12 39 29 88 38 110
37 97 8 181 -89 261 -47 38 -51 39 -134 42 -88 3 -119 -3 -256 -51 -116 -41
-329 -149 -369 -186 -16 -15 -33 -21 -52 -19 -24 3 -34 15 -70 82 -70 135
-146 182 -281 174 -67 -4 -89 -10 -159 -47 -94 -49 -195 -137 -322 -284 -78
-91 -200 -255 -257 -348 -94 -154 -172 -287 -227 -386 -42 -78 -61 -99 -79
-88 -16 11 -4 76 31 165 16 41 38 102 49 135 11 33 29 87 40 120 58 176 82
269 91 355 12 106 2 208 -24 258 -18 35 -89 96 -129 111 -33 13 -207 13 -252
1z m3910 -259 c22 -10 50 -29 63 -43 28 -31 52 -138 52 -238 0 -127 -29 -338
-59 -435 -16 -49 -46 -144 -66 -210 -20 -66 -46 -142 -57 -170 -11 -27 -31
-79 -45 -115 -13 -35 -29 -70 -34 -76 -5 -6 -18 -35 -28 -65 -32 -90 -126
-278 -191 -379 -89 -141 -174 -246 -262 -321 -55 -47 -82 -63 -149 -84 -92
-29 -119 -27 -186 11 -53 31 -79 67 -98 140 -31 115 -10 410 40 564 14 41 30
100 36 130 6 30 22 75 34 100 12 25 28 67 34 95 7 27 23 70 36 95 13 25 39 79
58 120 19 41 54 113 76 160 23 47 41 88 41 93 0 4 11 24 23 45 13 20 48 78 78
127 215 359 442 531 604 456z"/>
<path d="M222 4753 c-13 -3 -25 -10 -28 -17 -10 -26 -9 -4376 1 -4376 6 0 993
0 2195 0 2185 0 2185 0 2203 22 19 22 18 71 -2 91 -4 4 -950 8 -2102 7 -1554
0 -2103 2 -2127 11 -20 7 -37 22 -43 36 -6 16 -9 815 -9 2112 1 2086 1 2086
-21 2104 -21 17 -25 18 -67 10z"/>
<path d="M19663 4753 c-12 -2 -26 -10 -32 -17 -8 -10 -11 -609 -11 -2105 0
-1359 -3 -2098 -10 -2110 -5 -11 -24 -24 -42 -30 -24 -9 -590 -11 -2127 -11
-1716 1 -2096 -1 -2102 -12 -13 -20 -11 -72 4 -91 11 -16 152 -17 2207 -17
2195 -1 2195 -1 2201 24 4 14 5 27 3 29 -3 3 -5 974 -4 2159 0 1730 -2 2157
-12 2165 -18 14 -49 21 -75 16z"/>
<path d="M10170 3159 c-82 -13 -153 -38 -168 -60 -8 -12 -30 -28 -49 -35 -25
-11 -39 -26 -53 -59 -11 -25 -24 -45 -30 -45 -28 0 -43 -74 -42 -211 0 -137 7
-174 39 -193 8 -4 21 -23 29 -42 8 -18 26 -41 40 -51 14 -9 39 -29 54 -45 16
-15 38 -28 51 -28 24 0 89 -37 89 -51 0 -22 144 -2 160 22 3 5 31 15 62 23 61
16 98 32 98 44 0 4 12 15 28 24 52 32 92 75 107 118 9 24 23 53 33 63 14 16
17 39 17 133 0 104 -2 115 -21 128 -11 8 -26 32 -32 54 -11 37 -45 74 -140
153 -17 15 -55 32 -84 39 -29 7 -58 17 -64 22 -12 9 -48 8 -124 -3z m135 -188
c131 -63 178 -161 144 -297 -9 -35 -23 -55 -63 -89 -29 -24 -64 -49 -80 -54
-44 -17 -137 -13 -167 7 -86 57 -101 71 -124 116 -35 69 -32 124 8 205 23 46
42 70 64 82 18 9 40 22 48 29 14 12 63 27 95 29 8 1 42 -12 75 -28z"/>
<path d="M4823 2627 c-15 -12 -45 -30 -66 -40 -21 -9 -42 -28 -47 -41 -5 -14
-20 -32 -34 -41 -19 -12 -28 -31 -36 -73 -6 -31 -15 -70 -20 -87 -5 -18 -5
-47 1 -72 5 -24 13 -61 18 -82 9 -45 89 -134 131 -146 14 -4 37 -19 52 -33 25
-23 32 -25 95 -19 44 4 70 12 75 22 5 8 32 22 61 30 58 17 107 57 133 106 9
18 26 41 38 50 18 15 21 30 24 111 4 93 4 93 -50 173 -40 59 -64 84 -95 100
-23 11 -53 30 -65 42 -20 18 -35 22 -105 22 -71 0 -86 -3 -110 -22z m173 -183
c40 -19 74 -77 74 -125 0 -45 -35 -114 -66 -127 -31 -15 -119 -15 -145 -1 -11
5 -33 28 -49 51 -43 59 -41 106 7 159 21 23 47 45 58 49 33 14 85 11 121 -6z"/>
<path d="M6235 1820 c-4 -6 -24 -22 -45 -35 -51 -32 -95 -75 -114 -113 -9 -17
-26 -41 -39 -54 -20 -20 -23 -35 -25 -118 -3 -91 -2 -97 22 -120 15 -13 26
-27 26 -32 0 -26 70 -99 114 -120 28 -13 57 -31 66 -40 9 -10 34 -20 55 -22
43 -6 145 13 145 27 0 4 21 17 46 28 27 11 65 39 88 66 34 39 43 59 57 125 9
43 13 78 10 78 -3 0 1 5 9 10 13 8 13 11 1 19 -7 5 -13 21 -13 35 0 15 -4 29
-9 32 -5 3 -9 19 -9 35 0 20 -10 39 -28 57 -16 15 -36 40 -46 55 -10 16 -32
35 -49 42 -18 7 -41 23 -51 34 -17 18 -31 21 -112 21 -53 0 -96 -4 -99 -10z
m157 -193 c9 -7 32 -32 52 -56 45 -54 48 -100 11 -152 -68 -92 -188 -90 -245
3 -36 60 -20 130 44 186 29 25 45 32 79 32 23 0 49 -6 59 -13z"/>
</g>
</svg>
